<svg width="200" height="92" viewBox="0 0 200 92" fill="none" xmlns="http://www.w3.org/2000/svg">
<path d="M200 41.4902H0V65.8431H200V41.4902Z" fill="#E1E5E7"/>
<path d="M45.2478 77.0491C45.7851 77.0491 46.2806 77.2006 46.7343 77.5037C47.1881 77.8067 47.5463 78.2613 47.809 78.8675C48.0836 79.4736 48.2209 80.2096 48.2209 81.0755C48.2209 82.1145 48.0358 83.002 47.6657 83.738C47.3075 84.474 46.8298 85.0297 46.2328 85.4049C45.6478 85.7801 45.0209 85.9677 44.3522 85.9677C43.8985 85.9677 43.4507 85.8811 43.009 85.7079C42.5791 85.5347 42.1851 85.2822 41.8269 84.9503L40.197 85.8378H40.1612C40.1134 85.8378 40.0836 85.8089 40.0716 85.7512C40.0597 85.6935 40.0776 85.6574 40.1254 85.643C40.4119 85.4409 40.6269 85.1667 40.7701 84.8204C40.9254 84.4596 41.003 84.005 41.003 83.4566V72.9362C41.003 72.4311 40.9612 72.0703 40.8776 71.8538C40.806 71.6373 40.6687 71.5291 40.4657 71.5291C40.3104 71.5291 40.0895 71.6085 39.803 71.7672H39.7851C39.7373 71.7672 39.7015 71.7311 39.6776 71.659C39.6537 71.5724 39.6537 71.5219 39.6776 71.5075L42.2925 70.0138L42.3821 69.9922C42.4418 69.9922 42.5015 70.0282 42.5612 70.1004C42.6328 70.1581 42.6687 70.2158 42.6687 70.2736V78.4995C43.0627 78.0521 43.4627 77.6985 43.8687 77.4387C44.2746 77.179 44.7343 77.0491 45.2478 77.0491ZM44.7821 85.5347C45.2955 85.5347 45.6895 85.2173 45.9642 84.5823C46.2388 83.9473 46.3761 83.0598 46.3761 81.9197C46.3761 80.6642 46.203 79.7333 45.8567 79.1272C45.5104 78.5067 45.0269 78.1964 44.406 78.1964C43.8448 78.1964 43.2657 78.4417 42.6687 78.9324V82.1145C42.6687 82.9082 42.7821 83.5649 43.009 84.0844C43.2358 84.5895 43.5104 84.9575 43.8328 85.1884C44.1552 85.4193 44.4716 85.5347 44.7821 85.5347ZM56.6858 77.3305C56.7097 77.3305 56.7216 77.3738 56.7216 77.4604C56.7216 77.547 56.7097 77.5903 56.6858 77.5903C56.3037 77.5903 55.9694 77.7923 55.6828 78.1964C55.4082 78.586 55.1575 79.1561 54.9306 79.9065L52.9425 86.2924C52.3097 88.3128 51.7007 89.7271 51.1157 90.5352C50.5425 91.3578 49.9037 91.7691 49.1993 91.7691C48.841 91.7691 48.5664 91.6753 48.3754 91.4877C48.1843 91.3145 48.0888 91.0547 48.0888 90.7084C48.0888 90.3765 48.1724 90.1239 48.3396 89.9507C48.5067 89.7776 48.7097 89.691 48.9485 89.691C49.0799 89.691 49.1873 89.7126 49.2709 89.7559C49.3664 89.7992 49.4798 89.8714 49.6112 89.9724C49.8381 90.16 50.053 90.2538 50.256 90.2538C50.5306 90.2538 50.7754 90.1239 50.9903 89.8642C51.2172 89.6188 51.45 89.2003 51.6888 88.6086C51.9276 88.0314 52.2142 87.2016 52.5485 86.1192L49.6828 79.1272C49.4201 78.5067 49.2112 78.0954 49.056 77.8933C48.9127 77.6913 48.7336 77.5903 48.5187 77.5903C48.4828 77.5903 48.4649 77.547 48.4649 77.4604C48.4649 77.3738 48.4828 77.3305 48.5187 77.3305C48.853 77.3305 49.1097 77.3377 49.2888 77.3522L50.041 77.3738L51.2769 77.3522C51.4679 77.3377 51.7246 77.3305 52.047 77.3305C52.0828 77.3305 52.1007 77.3738 52.1007 77.4604C52.1007 77.547 52.0828 77.5903 52.047 77.5903C51.7366 77.5903 51.5097 77.6264 51.3664 77.6985C51.2231 77.7562 51.1515 77.8573 51.1515 78.0016C51.1515 78.117 51.1873 78.2613 51.259 78.4345L53.3724 83.6515L54.447 79.8849C54.5545 79.5096 54.6082 79.1705 54.6082 78.8675C54.6082 78.4634 54.5127 78.1531 54.3216 77.9366C54.1306 77.7057 53.856 77.5903 53.4978 77.5903C53.4739 77.5903 53.4619 77.547 53.4619 77.4604C53.4619 77.3738 53.4739 77.3305 53.4978 77.3305C53.8201 77.3305 54.0649 77.3377 54.2321 77.3522L55.3067 77.3738L56.0231 77.3522C56.1664 77.3377 56.3873 77.3305 56.6858 77.3305ZM75.5478 85.4265C75.5716 85.4265 75.5836 85.4698 75.5836 85.5564C75.5836 85.643 75.5716 85.6863 75.5478 85.6863C75.1418 85.6863 74.8194 85.6791 74.5807 85.6646L73.2554 85.643L71.9121 85.6646C71.6852 85.6791 71.3748 85.6863 70.9807 85.6863C70.9449 85.6863 70.927 85.643 70.927 85.5564C70.927 85.4698 70.9449 85.4265 70.9807 85.4265C71.4822 85.4265 71.8225 85.3544 72.0016 85.21C72.1807 85.0657 72.2703 84.7627 72.2703 84.3009L72.2524 83.9329L71.8763 75.0792L68.1867 85.5347C68.1628 85.5925 68.1151 85.6213 68.0434 85.6213C67.9718 85.6213 67.924 85.5925 67.9001 85.5347L63.3688 75.1225L63.2255 82.9371C63.2136 83.7164 63.3389 84.3297 63.6016 84.7771C63.8763 85.21 64.2584 85.4265 64.7479 85.4265C64.7837 85.4265 64.8016 85.4698 64.8016 85.5564C64.8016 85.643 64.7837 85.6863 64.7479 85.6863C64.4255 85.6863 64.1748 85.6791 63.9957 85.6646L63.0106 85.643L61.8822 85.6646C61.6912 85.6791 61.4345 85.6863 61.1121 85.6863C61.0763 85.6863 61.0584 85.643 61.0584 85.5564C61.0584 85.4698 61.0763 85.4265 61.1121 85.4265C61.6016 85.4265 61.9897 85.2028 62.2763 84.7555C62.5628 84.3081 62.7121 83.702 62.724 82.9371L62.8852 73.9752L62.8673 73.9536C62.6285 73.4196 62.3778 73.03 62.1151 72.7846C61.8643 72.5393 61.5718 72.4166 61.2375 72.4166C61.2016 72.4166 61.1837 72.3733 61.1837 72.2867C61.1837 72.2002 61.2016 72.1569 61.2375 72.1569L62.0793 72.1785C62.2464 72.1929 62.4613 72.2002 62.724 72.2002L63.6733 72.1785C63.7807 72.1641 63.9181 72.1569 64.0852 72.1569C64.2404 72.1569 64.3598 72.2218 64.4434 72.3517C64.527 72.4816 64.6822 72.7918 64.9091 73.2825L68.8136 82.1362L72.2166 72.698C72.2882 72.496 72.3598 72.3589 72.4315 72.2867C72.5151 72.2002 72.6225 72.1569 72.7539 72.1569C72.8613 72.1569 72.9807 72.1641 73.1121 72.1785C73.2554 72.1929 73.4166 72.2002 73.5957 72.2002L74.6522 72.1785C74.8194 72.1641 75.0582 72.1569 75.3687 72.1569C75.4045 72.1569 75.4224 72.2002 75.4224 72.2867C75.4224 72.3733 75.4045 72.4166 75.3687 72.4166C74.8075 72.4166 74.4016 72.5537 74.1509 72.8279C73.9001 73.1021 73.7867 73.5278 73.8106 74.1051L74.2404 83.9329C74.2643 84.3802 74.3061 84.7049 74.3658 84.907C74.4375 85.109 74.5569 85.2461 74.7239 85.3183C74.903 85.3904 75.1776 85.4265 75.5478 85.4265ZM83.4896 84.5173C83.5373 84.5173 83.5672 84.5534 83.5791 84.6256C83.603 84.6833 83.591 84.7266 83.5433 84.7555L81.6985 85.8162C81.6507 85.845 81.591 85.8595 81.5194 85.8595C81.3403 85.8595 81.1612 85.7512 80.9821 85.5347C80.8149 85.3183 80.6955 85.0224 80.6239 84.6472L79.8 85.1884C79.4896 85.376 79.1672 85.5347 78.8328 85.6646C78.4985 85.7801 78.2 85.8378 77.9373 85.8378C77.5552 85.8378 77.2507 85.7224 77.0239 85.4914C76.809 85.2461 76.7015 84.8998 76.7015 84.4524C76.7015 84.1205 76.7672 83.8535 76.8985 83.6515C77.0418 83.4494 77.2388 83.2835 77.4895 83.1536C77.7522 83.0093 78.1642 82.8216 78.7254 82.5907L80.5522 81.8764V80.1663C80.5522 79.3004 80.4806 78.6654 80.3373 78.2613C80.194 77.8428 79.9612 77.6336 79.6388 77.6336C79.3522 77.6336 79.1254 77.7635 78.9582 78.0232C78.791 78.283 78.6896 78.7087 78.6537 79.3004C78.5821 80.1085 78.2299 80.5126 77.597 80.5126C77.0358 80.5126 76.7552 80.2168 76.7552 79.6251C76.7552 79.2355 76.9582 78.8458 77.3642 78.4562C77.7701 78.0665 78.2597 77.749 78.8328 77.5037C79.406 77.2584 79.9075 77.1357 80.3373 77.1357C80.8985 77.1357 81.3522 77.3377 81.6985 77.7418C82.0567 78.1459 82.2358 78.7376 82.2358 79.5169V83.3484C82.2358 83.7669 82.2955 84.0916 82.4149 84.3225C82.5463 84.5534 82.7254 84.6689 82.9522 84.6689C83.1194 84.6689 83.2925 84.6184 83.4716 84.5173H83.4896ZM80.5701 84.3009C80.5582 84.1998 80.5522 84.0483 80.5522 83.8463V82.2444L79.5672 82.6773C79.2448 82.8216 79.0119 82.9804 78.8687 83.1536C78.7373 83.3267 78.6716 83.536 78.6716 83.7813C78.6716 84.0844 78.7433 84.3225 78.8866 84.4957C79.0299 84.6689 79.209 84.7555 79.4239 84.7555C79.6866 84.7555 79.991 84.6544 80.3373 84.4524L80.5701 84.3009ZM88.8791 77.114C89.1537 77.114 89.4164 77.2367 89.6672 77.482C89.9299 77.7129 90.0612 77.9944 90.0612 78.3263C90.0612 78.6293 89.9836 78.8819 89.8284 79.0839C89.6731 79.2715 89.4701 79.3653 89.2194 79.3653C89.0403 79.3653 88.891 79.322 88.7716 79.2355C88.6642 79.1489 88.5507 79.019 88.4313 78.8458C88.3239 78.7015 88.2284 78.6005 88.1448 78.5427C88.0731 78.4706 87.9836 78.4345 87.8761 78.4345C87.7567 78.4345 87.6254 78.4922 87.4821 78.6077C87.3507 78.7087 87.1418 78.9324 86.8552 79.2788V83.9329C86.8552 84.5101 86.9687 84.907 87.1955 85.1235C87.4224 85.3255 87.8403 85.4265 88.4493 85.4265C88.497 85.4265 88.5209 85.4698 88.5209 85.5564C88.5209 85.643 88.497 85.6863 88.4493 85.6863C88.0313 85.6863 87.703 85.6791 87.4642 85.6646L86.0134 85.643L84.9567 85.6646C84.7776 85.6791 84.5328 85.6863 84.2224 85.6863C84.1866 85.6863 84.1687 85.643 84.1687 85.5564C84.1687 85.4698 84.1866 85.4265 84.2224 85.4265C84.5925 85.4265 84.8433 85.3255 84.9746 85.1235C85.106 84.907 85.1716 84.5101 85.1716 83.9329V79.8632C85.1716 79.4158 85.1239 79.0911 85.0284 78.8891C84.9448 78.6726 84.8075 78.5644 84.6164 78.5644C84.4134 78.5644 84.1269 78.6654 83.7567 78.8675H83.7209C83.6851 78.8675 83.6552 78.8314 83.6313 78.7592C83.6194 78.6871 83.6254 78.6438 83.6493 78.6293L86.1388 77.1573C86.2104 77.1285 86.2522 77.114 86.2642 77.114C86.3955 77.114 86.5149 77.2656 86.6224 77.5686C86.7418 77.8573 86.8134 78.2541 86.8373 78.7592C87.3269 78.1531 87.7269 77.7274 88.0373 77.482C88.3597 77.2367 88.6403 77.114 88.8791 77.114ZM94.291 85.946C93.503 85.946 92.8343 85.744 92.2851 85.3399C91.7478 84.9214 91.3418 84.3874 91.0672 83.738C90.8045 83.0742 90.6731 82.3815 90.6731 81.6599C90.6731 80.7507 90.8821 79.957 91.3 79.2788C91.7179 78.586 92.2493 78.0593 92.894 77.6985C93.5507 77.3233 94.2194 77.1357 94.9 77.1357C95.4731 77.1357 95.9866 77.28 96.4403 77.5686C96.906 77.8573 97.1388 78.2541 97.1388 78.7592C97.1388 79.0334 97.0493 79.2715 96.8702 79.4736C96.703 79.6612 96.4642 79.755 96.1537 79.755C95.8672 79.755 95.6403 79.6684 95.4731 79.4952C95.306 79.3076 95.1687 79.0262 95.0612 78.651C94.9537 78.2469 94.8463 77.9727 94.7388 77.8284C94.6433 77.6697 94.4642 77.5903 94.2015 77.5903C93.6881 77.5903 93.2761 77.9006 92.9657 78.5211C92.6672 79.1272 92.5179 79.9354 92.5179 80.9456C92.5179 82.1434 92.7388 83.1031 93.1806 83.8246C93.6224 84.5318 94.3269 84.8853 95.294 84.8853C95.6164 84.8853 95.891 84.842 96.1179 84.7555C96.3567 84.6689 96.6552 84.5245 97.0134 84.3225H97.0313C97.0672 84.3225 97.097 84.3442 97.1209 84.3875C97.1567 84.4307 97.1627 84.4668 97.1388 84.4957C96.697 84.9864 96.2552 85.3544 95.8134 85.5997C95.3716 85.8306 94.8642 85.946 94.291 85.946ZM101.849 85.9677C101.108 85.9677 100.457 85.7656 99.8963 85.3616C99.347 84.9431 98.9231 84.3875 98.6246 83.6947C98.3261 82.9876 98.1769 82.2227 98.1769 81.4002C98.1769 80.4621 98.3739 79.6684 98.7679 79.019C99.1619 78.3551 99.6634 77.8645 100.272 77.547C100.881 77.2151 101.508 77.0491 102.153 77.0491C102.893 77.0491 103.538 77.2584 104.087 77.6769C104.637 78.0954 105.054 78.651 105.341 79.3437C105.64 80.022 105.789 80.7507 105.789 81.53C105.789 82.3959 105.61 83.168 105.251 83.8463C104.893 84.5101 104.41 85.0297 103.801 85.4049C103.204 85.7801 102.553 85.9677 101.849 85.9677ZM102.386 85.5131C102.851 85.5131 103.204 85.2389 103.443 84.6905C103.693 84.1277 103.819 83.3267 103.819 82.2877C103.819 81.2775 103.711 80.4116 103.496 79.69C103.281 78.9685 103.001 78.4273 102.654 78.0665C102.308 77.6913 101.938 77.5037 101.544 77.5037C100.589 77.5037 100.111 78.5355 100.111 80.5992C100.111 81.5661 100.213 82.4248 100.416 83.1752C100.619 83.9112 100.893 84.4885 101.24 84.907C101.586 85.3111 101.968 85.5131 102.386 85.5131ZM108.48 78.3696C108.48 78.7881 108.599 79.1489 108.838 79.4519C109.089 79.755 109.447 80.0725 109.913 80.4044C110.366 80.7219 110.701 80.9744 110.916 81.162C111.143 81.3352 111.346 81.5878 111.525 81.9197C111.704 82.2372 111.793 82.6268 111.793 83.0886C111.793 83.5793 111.692 84.0411 111.489 84.474C111.286 84.907 110.981 85.2606 110.575 85.5347C110.169 85.7945 109.686 85.9244 109.125 85.9244C108.468 85.9244 107.847 85.7296 107.262 85.3399C107.19 85.2533 107.154 85.1667 107.154 85.0802L107.119 82.9371C107.119 82.8938 107.149 82.8722 107.208 82.8722C107.28 82.8577 107.322 82.8649 107.334 82.8938C107.525 83.6154 107.841 84.2287 108.283 84.7338C108.725 85.2389 109.172 85.4914 109.626 85.4914C109.877 85.4914 110.074 85.3976 110.217 85.21C110.372 85.0224 110.45 84.7482 110.45 84.3875C110.45 83.8535 110.325 83.435 110.074 83.1319C109.823 82.8144 109.453 82.4897 108.963 82.1578C108.546 81.8836 108.229 81.6599 108.014 81.4867C107.799 81.3136 107.608 81.0682 107.441 80.7507C107.274 80.4333 107.19 80.0436 107.19 79.5818C107.19 78.7304 107.441 78.1098 107.943 77.7202C108.444 77.3161 109.059 77.114 109.787 77.114C110.062 77.114 110.307 77.1357 110.522 77.179C110.749 77.2223 110.999 77.3089 111.274 77.4387C111.381 77.482 111.435 77.5614 111.435 77.6769C111.435 78.0377 111.429 78.3191 111.417 78.5211L111.399 79.6034C111.399 79.6467 111.363 79.6684 111.292 79.6684C111.22 79.6684 111.184 79.6467 111.184 79.6034C111.184 79.3293 111.089 79.0334 110.898 78.7159C110.707 78.384 110.456 78.1026 110.146 77.8717C109.847 77.6408 109.537 77.5253 109.214 77.5253C108.725 77.5253 108.48 77.8067 108.48 78.3696ZM128.509 72.1569C128.545 72.1569 128.563 72.2002 128.563 72.2867C128.563 72.3733 128.545 72.4166 128.509 72.4166C128.079 72.4166 127.667 72.6475 127.273 73.1093C126.879 73.5711 126.563 74.1917 126.324 74.971L123.01 85.6646C122.999 85.7224 122.933 85.7512 122.813 85.7512C122.694 85.7512 122.628 85.7224 122.616 85.6646L118.049 73.9536C117.834 73.434 117.619 73.0516 117.404 72.8063C117.19 72.5465 116.951 72.4166 116.688 72.4166C116.652 72.4166 116.634 72.3733 116.634 72.2867C116.634 72.2002 116.652 72.1569 116.688 72.1569C116.867 72.1569 116.993 72.1641 117.064 72.1785C117.303 72.2074 117.613 72.2218 117.996 72.2218C119.022 72.2218 119.894 72.2074 120.61 72.1785C120.801 72.1641 121.04 72.1569 121.327 72.1569C121.363 72.1569 121.381 72.2002 121.381 72.2867C121.381 72.3733 121.363 72.4166 121.327 72.4166C120.969 72.4166 120.688 72.5104 120.485 72.698C120.294 72.8712 120.199 73.1238 120.199 73.4557C120.199 73.701 120.264 73.9969 120.396 74.3432L123.494 82.331L125.822 74.906C125.942 74.502 126.001 74.1556 126.001 73.867C126.001 73.4196 125.888 73.066 125.661 72.8063C125.446 72.5465 125.13 72.4166 124.712 72.4166C124.676 72.4166 124.658 72.3733 124.658 72.2867C124.658 72.2002 124.676 72.1569 124.712 72.1569L125.59 72.1785C126.091 72.2074 126.539 72.2218 126.933 72.2218C127.16 72.2218 127.44 72.2074 127.775 72.1785L128.509 72.1569ZM134.007 84.2576C134.031 84.2576 134.055 84.2864 134.079 84.3442C134.115 84.4019 134.121 84.4452 134.097 84.474C133.655 84.9936 133.207 85.3688 132.754 85.5997C132.3 85.8306 131.804 85.946 131.267 85.946C130.515 85.946 129.864 85.7584 129.315 85.3832C128.766 84.9936 128.348 84.4813 128.061 83.8463C127.775 83.1969 127.631 82.5042 127.631 81.7682C127.631 80.9311 127.81 80.1591 128.169 79.4519C128.527 78.7304 129.016 78.1675 129.637 77.7635C130.258 77.3449 130.951 77.1357 131.715 77.1357C132.455 77.1357 133.022 77.3305 133.416 77.7202C133.81 78.0954 134.007 78.6149 134.007 79.2788C134.007 79.6973 133.942 79.9065 133.81 79.9065H132.718L129.494 79.9498C129.458 80.224 129.44 80.5271 129.44 80.859C129.44 82.1001 129.679 83.0814 130.157 83.803C130.646 84.5246 131.315 84.8853 132.163 84.8853C132.461 84.8853 132.772 84.8348 133.094 84.7338C133.416 84.6328 133.709 84.4813 133.972 84.2792L134.007 84.2576ZM131.052 77.5686C130.694 77.5686 130.384 77.7418 130.121 78.0882C129.858 78.4345 129.667 78.9108 129.548 79.5169L132.091 79.4519C132.055 78.1964 131.709 77.5686 131.052 77.5686ZM139.899 77.114C140.174 77.114 140.437 77.2367 140.687 77.482C140.95 77.7129 141.081 77.9944 141.081 78.3263C141.081 78.6293 141.004 78.8819 140.849 79.0839C140.693 79.2715 140.49 79.3653 140.24 79.3653C140.06 79.3653 139.911 79.322 139.792 79.2355C139.684 79.1489 139.571 79.019 139.451 78.8458C139.344 78.7015 139.249 78.6005 139.165 78.5427C139.093 78.4706 139.004 78.4345 138.896 78.4345C138.777 78.4345 138.646 78.4922 138.502 78.6077C138.371 78.7087 138.162 78.9324 137.875 79.2788V83.9329C137.875 84.5101 137.989 84.907 138.216 85.1235C138.443 85.3255 138.86 85.4265 139.469 85.4265C139.517 85.4265 139.541 85.4698 139.541 85.5564C139.541 85.643 139.517 85.6863 139.469 85.6863C139.051 85.6863 138.723 85.6791 138.484 85.6646L137.034 85.643L135.977 85.6646C135.798 85.6791 135.553 85.6863 135.243 85.6863C135.207 85.6863 135.189 85.643 135.189 85.5564C135.189 85.4698 135.207 85.4265 135.243 85.4265C135.613 85.4265 135.863 85.3255 135.995 85.1235C136.126 84.907 136.192 84.5101 136.192 83.9329V79.8632C136.192 79.4158 136.144 79.0911 136.049 78.8891C135.965 78.6726 135.828 78.5644 135.637 78.5644C135.434 78.5644 135.147 78.6654 134.777 78.8675H134.741C134.705 78.8675 134.675 78.8314 134.651 78.7592C134.64 78.6871 134.646 78.6438 134.669 78.6293L137.159 77.1573C137.231 77.1285 137.272 77.114 137.284 77.114C137.416 77.114 137.535 77.2656 137.643 77.5686C137.762 77.8573 137.834 78.2541 137.857 78.7592C138.347 78.1531 138.747 77.7274 139.057 77.482C139.38 77.2367 139.66 77.114 139.899 77.114ZM145.366 85.9677C144.625 85.9677 143.975 85.7656 143.413 85.3616C142.864 84.9431 142.44 84.3875 142.142 83.6947C141.843 82.9876 141.694 82.2227 141.694 81.4002C141.694 80.4621 141.891 79.6684 142.285 79.019C142.679 78.3551 143.181 77.8645 143.79 77.547C144.399 77.2151 145.025 77.0491 145.67 77.0491C146.41 77.0491 147.055 77.2584 147.604 77.6769C148.154 78.0954 148.572 78.651 148.858 79.3437C149.157 80.022 149.306 80.7507 149.306 81.53C149.306 82.3959 149.127 83.168 148.769 83.8463C148.41 84.5101 147.927 85.0297 147.318 85.4049C146.721 85.7801 146.07 85.9677 145.366 85.9677ZM145.903 85.5131C146.369 85.5131 146.721 85.2389 146.96 84.6905C147.21 84.1277 147.336 83.3267 147.336 82.2877C147.336 81.2775 147.228 80.4116 147.013 79.69C146.799 78.9685 146.518 78.4273 146.172 78.0665C145.825 77.6913 145.455 77.5037 145.061 77.5037C144.106 77.5037 143.628 78.5355 143.628 80.5992C143.628 81.5661 143.73 82.4248 143.933 83.1752C144.136 83.9112 144.41 84.4885 144.757 84.907C145.103 85.3111 145.485 85.5131 145.903 85.5131ZM159 85.4265C159.036 85.4265 159.054 85.4698 159.054 85.5564C159.054 85.643 159.036 85.6863 159 85.6863C158.69 85.6863 158.445 85.6791 158.266 85.6646L157.191 85.643L156.152 85.6646C155.961 85.6791 155.71 85.6863 155.4 85.6863C155.364 85.6863 155.346 85.643 155.346 85.5564C155.346 85.4698 155.364 85.4265 155.4 85.4265C155.77 85.4265 156.021 85.3255 156.152 85.1235C156.284 84.907 156.349 84.5101 156.349 83.9329V80.8157C156.349 80.0364 156.23 79.4591 155.991 79.0839C155.764 78.7087 155.4 78.5211 154.899 78.5211C154.612 78.5211 154.313 78.5933 154.003 78.7376C153.704 78.8819 153.442 79.0767 153.215 79.322V83.9329C153.215 84.5101 153.281 84.907 153.412 85.1235C153.555 85.3255 153.812 85.4265 154.182 85.4265C154.218 85.4265 154.236 85.4698 154.236 85.5564C154.236 85.643 154.218 85.6863 154.182 85.6863C153.872 85.6863 153.627 85.6791 153.448 85.6646L152.373 85.643L151.316 85.6646C151.137 85.6791 150.893 85.6863 150.582 85.6863C150.546 85.6863 150.528 85.643 150.528 85.5564C150.528 85.4698 150.546 85.4265 150.582 85.4265C150.952 85.4265 151.203 85.3255 151.334 85.1235C151.466 84.907 151.531 84.5101 151.531 83.9329V79.8632C151.531 79.4158 151.484 79.0911 151.388 78.8891C151.304 78.6726 151.167 78.5644 150.976 78.5644C150.773 78.5644 150.487 78.6654 150.116 78.8675H150.081C150.045 78.8675 150.015 78.8314 149.991 78.7592C149.979 78.6871 149.985 78.6438 150.009 78.6293L152.499 77.1573C152.57 77.1285 152.612 77.114 152.624 77.114C152.755 77.114 152.881 77.2728 153 77.5903C153.119 77.8933 153.191 78.3118 153.215 78.8458C154.039 77.6624 154.946 77.0707 155.937 77.0707C156.582 77.0707 157.09 77.3233 157.46 77.8284C157.842 78.3191 158.033 78.9685 158.033 79.7766V83.9329C158.033 84.5101 158.099 84.907 158.23 85.1235C158.373 85.3255 158.63 85.4265 159 85.4265Z" fill="white"/>
<path d="M27.5104 53.4466C26.4916 53.4466 25.2816 53.3889 23.8806 53.2734C23.3711 53.2349 22.7343 53.1965 21.9701 53.158C21.2378 53.1194 20.4099 53.1002 19.4866 53.1002L15.9522 53.158C15.3154 53.1965 14.4557 53.2157 13.3731 53.2157C13.3095 53.2157 13.2776 53.1002 13.2776 52.8693C13.2776 52.6384 13.3095 52.523 13.3731 52.523C14.392 52.523 15.1403 52.4267 15.6179 52.2344C16.0955 52.042 16.414 51.6763 16.5731 51.1376C16.7642 50.5603 16.8597 49.6944 16.8597 48.5399V21.813C16.8597 20.6585 16.7642 19.8118 16.5731 19.2731C16.414 18.7344 16.0955 18.3687 15.6179 18.1763C15.1722 17.9454 14.4557 17.83 13.4687 17.83C13.3731 17.83 13.3254 17.7145 13.3254 17.4836C13.3254 17.2527 13.3731 17.1373 13.4687 17.1373L16 17.195C17.4647 17.2719 18.6269 17.3104 19.4866 17.3104C20.792 17.3104 22.1293 17.2527 23.4985 17.1373C25.1543 17.0603 26.2687 17.0218 26.8418 17.0218C30.0577 17.0218 32.9075 17.7914 35.391 19.3308C37.9065 20.8702 39.8487 22.9675 41.2179 25.6229C42.5871 28.2783 43.2716 31.2608 43.2716 34.5704C43.2716 38.3033 42.5552 41.6129 41.1224 44.4991C39.7214 47.3469 37.811 49.5598 35.391 51.1376C33.003 52.6769 30.3761 53.4466 27.5104 53.4466ZM27.0328 52.1189C29.0707 52.1189 30.8696 51.5031 32.4298 50.2717C33.9901 49.0017 35.2 47.1353 36.0597 44.6723C36.9513 42.2093 37.397 39.2653 37.397 35.8403C37.397 32.5692 36.9831 29.606 36.1552 26.9506C35.3274 24.2567 34.1493 22.1402 32.6209 20.6008C31.0925 19.0614 29.3254 18.2918 27.3194 18.2918C25.3453 18.2918 23.992 18.5227 23.2597 18.9845C22.5274 19.4463 22.1612 20.4276 22.1612 21.9285V47.9049C22.1612 49.4443 22.4955 50.5411 23.1642 51.1953C23.8328 51.8111 25.1224 52.1189 27.0328 52.1189ZM63.8672 49.4058C63.9308 49.4058 63.9945 49.4827 64.0582 49.6367C64.1537 49.7907 64.1696 49.9061 64.106 49.9831C62.9278 51.3685 61.7338 52.369 60.5239 52.9848C59.3139 53.6006 57.9925 53.9084 56.5597 53.9084C54.5537 53.9084 52.8184 53.4081 51.3537 52.4075C49.889 51.3685 48.7746 50.0023 48.0104 48.309C47.2463 46.5773 46.8642 44.73 46.8642 42.7674C46.8642 40.5353 47.3418 38.4765 48.297 36.5907C49.2522 34.6666 50.5577 33.1657 52.2134 32.0882C53.8692 30.9722 55.7159 30.4141 57.7537 30.4141C59.7278 30.4141 61.2403 30.9337 62.291 31.9727C63.3418 32.9733 63.8672 34.3587 63.8672 36.1289C63.8672 37.2449 63.692 37.803 63.3418 37.803H60.4284L51.8313 37.9184C51.7358 38.6497 51.6881 39.4578 51.6881 40.3429C51.6881 43.6525 52.3248 46.2694 53.5985 48.1936C54.904 50.1177 56.6871 51.0798 58.9478 51.0798C59.7438 51.0798 60.5716 50.9452 61.4313 50.6758C62.291 50.4064 63.0711 50.0023 63.7716 49.4635L63.8672 49.4058ZM55.9866 31.5686C55.0313 31.5686 54.2035 32.0304 53.503 32.954C52.8025 33.8776 52.2931 35.1476 51.9746 36.7639L58.7567 36.5907C58.6612 33.2427 57.7378 31.5686 55.9866 31.5686ZM70.9343 33.7045C70.9343 34.8205 71.2528 35.7826 71.8895 36.5907C72.5582 37.3989 73.5134 38.2456 74.7552 39.1307C75.9649 39.9773 76.8567 40.6507 77.4298 41.1511C78.0351 41.6129 78.5761 42.2864 79.0537 43.1715C79.5313 44.0181 79.7701 45.0572 79.7701 46.2886C79.7701 47.5971 79.4993 48.8286 78.9582 49.9831C78.4172 51.1376 77.6052 52.0804 76.5224 52.8116C75.4395 53.5043 74.1502 53.8507 72.6537 53.8507C70.9025 53.8507 69.2468 53.3311 67.6866 52.2921C67.4955 52.0612 67.4 51.8303 67.4 51.5994L67.3045 45.8846C67.3045 45.7691 67.3841 45.7114 67.5433 45.7114C67.7343 45.6729 67.8457 45.6922 67.8776 45.7691C68.3871 47.6933 69.2308 49.3289 70.409 50.6758C71.5871 52.0227 72.7811 52.6962 73.991 52.6962C74.6597 52.6962 75.1851 52.446 75.5672 51.9457C75.9813 51.4454 76.1881 50.7143 76.1881 49.7522C76.1881 48.3282 75.8537 47.2122 75.1851 46.4041C74.5164 45.5574 73.5293 44.6915 72.2239 43.8064C71.1095 43.0752 70.2657 42.4787 69.6925 42.0169C69.1194 41.5551 68.6099 40.9009 68.1642 40.0543C67.7184 39.2076 67.4955 38.1685 67.4955 36.9371C67.4955 34.6666 68.1642 33.0118 69.5015 31.9727C70.8388 30.8951 72.4786 30.3564 74.4209 30.3564C75.153 30.3564 75.806 30.4141 76.3791 30.5296C76.9843 30.645 77.653 30.8759 78.3851 31.2223C78.6716 31.3377 78.8149 31.5494 78.8149 31.8573C78.8149 32.8194 78.7992 33.5698 78.7672 34.1086L78.7194 36.9948C78.7194 37.1103 78.6239 37.168 78.4328 37.168C78.2418 37.168 78.1463 37.1103 78.1463 36.9948C78.1463 36.2636 77.8918 35.4747 77.3821 34.6281C76.8724 33.743 76.2037 32.9926 75.3761 32.3768C74.5801 31.761 73.7522 31.4532 72.8925 31.4532C71.5871 31.4532 70.9343 32.2036 70.9343 33.7045ZM91.7067 48.309C91.7067 49.5405 91.8179 50.4449 92.041 51.0221C92.2634 51.5609 92.6776 51.9457 93.2828 52.1766C93.9194 52.4075 94.9224 52.523 96.2918 52.523C96.3873 52.523 96.4351 52.6384 96.4351 52.8693C96.4351 53.1002 96.3873 53.2157 96.2918 53.2157C94.9858 53.2157 93.9672 53.1965 93.2351 53.158L89.0798 53.1002L85.5933 53.158C84.956 53.1965 84.0963 53.2157 83.0142 53.2157C82.9187 53.2157 82.8709 53.1002 82.8709 52.8693C82.8709 52.6384 82.9187 52.523 83.0142 52.523C84.0328 52.523 84.7649 52.4267 85.2112 52.2344C85.6888 52.042 86.0067 51.6763 86.1664 51.1376C86.3254 50.5603 86.4052 49.6944 86.4052 48.5399V21.813C86.4052 20.6585 86.3254 19.8118 86.1664 19.2731C86.0067 18.7344 85.6888 18.3687 85.2112 18.1763C84.7336 17.9454 84.0007 17.83 83.0142 17.83C82.9187 17.83 82.8709 17.7145 82.8709 17.4836C82.8709 17.2527 82.9187 17.1373 83.0142 17.1373L85.5455 17.195C87.0097 17.2719 88.1724 17.3104 89.0321 17.3104C89.7963 17.3104 90.7037 17.2527 91.7545 17.1373C92.1679 17.0987 92.6933 17.0603 93.3298 17.0218C93.9672 16.9833 94.6992 16.9641 95.5276 16.9641C98.7754 16.9641 101.338 17.7914 103.217 19.4463C105.096 21.0626 106.035 23.5833 106.035 27.0083C106.035 29.3943 105.525 31.4147 104.507 33.0695C103.487 34.7243 102.166 35.975 100.543 36.8216C98.95 37.6683 97.3104 38.0916 95.6231 38.0916C94.7634 38.0916 94.0149 37.9954 93.3784 37.803C93.3142 37.803 93.2828 37.7067 93.2828 37.5144C93.2828 37.3989 93.2985 37.2835 93.3298 37.168C93.394 37.0526 93.4575 37.014 93.5216 37.0526C93.9993 37.2065 94.5403 37.2835 95.1455 37.2835C96.6097 37.2835 97.8201 36.4561 98.7754 34.8013C99.7619 33.1464 100.256 30.799 100.256 27.7587C100.256 24.7185 99.7142 22.3711 98.6321 20.7162C97.5813 19.0614 96.0366 18.234 93.9985 18.234C93.1075 18.234 92.5022 18.4842 92.1843 18.9845C91.8657 19.4848 91.7067 20.4661 91.7067 21.9285V48.309ZM125.201 49.4058C125.265 49.4058 125.328 49.4827 125.393 49.6367C125.488 49.7907 125.504 49.9061 125.44 49.9831C124.262 51.3685 123.068 52.369 121.858 52.9848C120.648 53.6006 119.327 53.9084 117.894 53.9084C115.888 53.9084 114.152 53.4081 112.688 52.4075C111.223 51.3685 110.109 50.0023 109.345 48.309C108.581 46.5773 108.198 44.73 108.198 42.7674C108.198 40.5353 108.676 38.4765 109.631 36.5907C110.587 34.6666 111.892 33.1657 113.548 32.0882C115.203 30.9722 117.05 30.4141 119.088 30.4141C121.062 30.4141 122.575 30.9337 123.625 31.9727C124.676 32.9733 125.201 34.3587 125.201 36.1289C125.201 37.2449 125.026 37.803 124.676 37.803H121.763L113.166 37.9184C113.07 38.6497 113.022 39.4578 113.022 40.3429C113.022 43.6525 113.659 46.2694 114.933 48.1936C116.238 50.1177 118.021 51.0798 120.282 51.0798C121.078 51.0798 121.906 50.9452 122.766 50.6758C123.625 50.4064 124.405 50.0023 125.106 49.4635L125.201 49.4058ZM117.321 31.5686C116.366 31.5686 115.537 32.0304 114.837 32.954C114.137 33.8776 113.627 35.1476 113.309 36.7639L120.091 36.5907C119.996 33.2427 119.072 31.5686 117.321 31.5686ZM146.551 50.0985C146.678 50.0985 146.758 50.1948 146.79 50.3871C146.854 50.5411 146.822 50.6566 146.695 50.7335L141.775 53.562C141.648 53.639 141.489 53.6775 141.298 53.6775C140.82 53.6775 140.343 53.3889 139.865 52.8116C139.419 52.2344 139.101 51.4454 138.91 50.4449L136.713 51.888C135.884 52.3883 135.025 52.8116 134.134 53.158C133.242 53.4658 132.446 53.6198 131.746 53.6198C130.726 53.6198 129.914 53.3119 129.31 52.6962C128.737 52.042 128.45 51.1184 128.45 49.9253C128.45 49.0402 128.625 48.3282 128.975 47.7895C129.357 47.2508 129.883 46.8082 130.551 46.4618C131.251 46.0769 132.35 45.5767 133.847 44.9609L138.719 43.056V38.4957C138.719 36.1867 138.528 34.4934 138.146 33.4158C137.763 32.2998 137.143 31.7418 136.283 31.7418C135.519 31.7418 134.913 32.0882 134.468 32.7809C134.022 33.4736 133.751 34.6089 133.656 36.1867C133.465 38.3417 132.525 39.4193 130.838 39.4193C129.341 39.4193 128.593 38.6304 128.593 37.0526C128.593 36.0135 129.134 34.9744 130.217 33.9354C131.299 32.8963 132.605 32.0496 134.134 31.3955C135.662 30.7413 136.999 30.4141 138.146 30.4141C139.642 30.4141 140.851 30.9529 141.775 32.0304C142.731 33.108 143.208 34.6858 143.208 36.7639V46.9813C143.208 48.0973 143.367 48.9632 143.686 49.579C144.036 50.1947 144.513 50.5026 145.119 50.5026C145.564 50.5026 146.026 50.3679 146.504 50.0985H146.551ZM138.766 49.5213C138.734 49.2518 138.719 48.8478 138.719 48.309V44.0373L136.092 45.1918C135.232 45.5767 134.611 46 134.229 46.4618C133.878 46.9236 133.704 47.4817 133.704 48.1358C133.704 48.944 133.895 49.579 134.277 50.0408C134.659 50.5026 135.137 50.7335 135.71 50.7335C136.41 50.7335 137.222 50.4641 138.146 49.9253L138.766 49.5213ZM157.818 53.9084C155.716 53.9084 153.934 53.3697 152.469 52.2921C151.036 51.1761 149.953 49.7522 149.221 48.0204C148.52 46.2501 148.17 44.4029 148.17 42.4787C148.17 40.0543 148.728 37.9376 149.842 36.1289C150.956 34.2817 152.373 32.8771 154.093 31.915C155.844 30.9144 157.627 30.4141 159.442 30.4141C160.97 30.4141 162.34 30.799 163.549 31.5686C164.791 32.3383 165.412 33.3966 165.412 34.7435C165.412 35.4748 165.173 36.1097 164.696 36.6485C164.25 37.1488 163.613 37.3989 162.785 37.3989C162.021 37.3989 161.416 37.168 160.97 36.7062C160.525 36.2059 160.158 35.4555 159.872 34.4549C159.585 33.3773 159.299 32.6462 159.012 32.2613C158.757 31.838 158.28 31.6264 157.579 31.6264C156.21 31.6264 155.111 32.4537 154.284 34.1086C153.487 35.7249 153.09 37.8799 153.09 40.5738C153.09 43.7679 153.678 46.3271 154.857 48.2513C156.035 50.137 157.913 51.0798 160.493 51.0798C161.352 51.0798 162.084 50.9644 162.69 50.7335C163.326 50.5026 164.122 50.1177 165.078 49.579H165.125C165.221 49.579 165.301 49.6367 165.364 49.7522C165.46 49.8676 165.475 49.9638 165.412 50.0408C164.234 51.3493 163.056 52.3306 161.878 52.9848C160.699 53.6006 159.346 53.9084 157.818 53.9084ZM185.183 49.4058C185.246 49.4058 185.31 49.4827 185.374 49.6367C185.469 49.7907 185.485 49.9061 185.422 49.9831C184.243 51.3685 183.049 52.369 181.84 52.9848C180.629 53.6006 179.308 53.9084 177.875 53.9084C175.869 53.9084 174.134 53.4081 172.669 52.4075C171.204 51.3685 170.09 50.0023 169.326 48.309C168.562 46.5773 168.18 44.73 168.18 42.7674C168.18 40.5353 168.657 38.4765 169.613 36.5907C170.568 34.6666 171.873 33.1657 173.529 32.0882C175.184 30.9722 177.031 30.4141 179.069 30.4141C181.043 30.4141 182.556 30.9337 183.607 31.9727C184.657 32.9733 185.183 34.3587 185.183 36.1289C185.183 37.2449 185.007 37.803 184.657 37.803H181.744L173.147 37.9184C173.051 38.6497 173.004 39.4578 173.004 40.3429C173.004 43.6525 173.64 46.2694 174.914 48.1936C176.219 50.1177 178.002 51.0798 180.263 51.0798C181.059 51.0798 181.887 50.9452 182.747 50.6758C183.607 50.4064 184.387 50.0023 185.087 49.4635L185.183 49.4058ZM177.302 31.5686C176.347 31.5686 175.519 32.0304 174.819 32.954C174.118 33.8776 173.608 35.1476 173.29 36.7639L180.072 36.5907C179.977 33.2427 179.053 31.5686 177.302 31.5686Z" fill="#099DE1"/>
</svg>
